<svg width="690" height="451" 
    xmlns="http://www.w3.org/2000/svg" data-element-id="Process_1" class="">
    <desc>Created with Snap</desc>
    <defs>
        <marker viewBox="0 0 20 20" markerWidth="10" markerHeight="10" orient="auto" refX="11" refY="10" id="markerSkbyohrgo4">
            <path d="M 1 5 L 11 10 L 1 15 Z" style="stroke-width: 1; stroke-linecap: round; stroke-dasharray: 10000, 1;" fill="#000000"/>
        </marker>
        <marker viewBox="0 0 20 20" markerWidth="20" markerHeight="20" orient="auto" refX="6" refY="6" id="markerSkbyohrgo6">
            <circle cx="6" cy="6" r="3.5" style="stroke-width: 1; stroke-linecap: round; stroke-dasharray: 10000, 1;" fill="#ffffff" stroke="#000000"/>
        </marker>
        <marker viewBox="0 0 20 20" markerWidth="20" markerHeight="20" orient="auto" refX="8.5" refY="5" id="markerSkbyohrgo8">
            <path d="m 1 5 l 0 -3 l 7 3 l -7 3 z" fill="#ffffff" stroke="#000000" style="stroke-width: 1; stroke-linecap: butt; stroke-dasharray: 10000, 1;"/>
        </marker>
        <marker viewBox="0 0 20 20" markerWidth="10" markerHeight="10" orient="auto" refX="11" refY="10" id="markerSkbyohrgoa">
            <path d="M 1 5 L 11 10 L 1 15" fill="#ffffff" stroke="#000000" style="stroke-width: 1; stroke-linecap: round; stroke-dasharray: 10000, 1;"/>
        </marker>
        <marker viewBox="0 0 20 20" markerWidth="10" markerHeight="10" orient="auto" refX="-1" refY="10" id="markerSkbyohrgoc">
            <path d="M 0 10 L 8 6 L 16 10 L 8 14 Z" fill="#ffffff" stroke="#000000" style="stroke-width: 1; stroke-linecap: round; stroke-dasharray: 10000, 1;"/>
        </marker>
        <marker viewBox="0 0 20 20" markerWidth="10" markerHeight="10" orient="auto" refX="-5" refY="10" id="markerSkbyohrgoe">
            <path d="M 1 4 L 5 16" fill="#000000" stroke="#000000" style="stroke-width: 1; stroke-linecap: round; stroke-dasharray: 10000, 1;"/>
        </marker>
    </defs>
    <g class="viewport" transform="matrix(0.8374,0,0,0.8374,-66.9903,-11.7233)">
        <g data-element-id="Process_1" class="layer-base">
            <g class="djs-group">
                <g data-element-id="StartEvent_1" transform="matrix(1,0,0,1,86,196)" style="display: block;" class="djs-element djs-shape">
                    <g class="djs-visual">
                        <circle cx="15" cy="15" r="15" stroke="#000000" fill="#ffffff" style="stroke-width: 2;"/>
                    </g>
                    <rect x="0" y="0" width="30" height="30" fill="none" stroke="#ffffff" style="stroke-opacity: 0; stroke-width: 15;" class="djs-hit"/>
                    <rect x="-6" y="-6" width="42" height="42" fill="none" style="" class="djs-outline"/>
                </g>
            </g>
            <g class="djs-group">
                <g data-element-id="StartEvent_1_label" class="djs-element djs-shape" transform="matrix(1,0,0,1,56,226)" style="display: none;">
                    <g class="djs-visual">
                        <text class=" djs-label" style="font-family: Arial, sans-serif; font-size: 11px;">
                            <tspan x="45" y="0"/>
                        </text>
                    </g>
                    <rect x="0" y="0" width="90" height="20" fill="none" stroke="#ffffff" style="stroke-opacity: 0; stroke-width: 15;" class="djs-hit"/>
                    <rect x="-6" y="-6" width="102" height="32" fill="none" style="" class="djs-outline"/>
                </g>
            </g>
            <g class="djs-group">
                <g data-element-id="SubProcess_1" class="djs-element djs-shape" transform="matrix(1,0,0,1,280,20)" style="display: block;">
                    <g class="djs-visual">
                        <rect x="0" y="0" width="511" height="261" rx="10" ry="10" stroke="#000000" fill="#ffffff" style="stroke-width: 2;"/>
                        <text class=" djs-label" style="font-family: Arial, sans-serif; font-size: 12px;">
                            <tspan x="221.4765625" y="18.21875">Sub Process</tspan>
                        </text>
                    </g>
                    <rect x="0" y="0" width="511" height="261" fill="none" stroke="#ffffff" style="stroke-opacity: 0; stroke-width: 15;" class="djs-hit"/>
                    <rect x="-6" y="-6" width="523" height="273" fill="none" style="" class="djs-outline"/>
                </g>
                <g class="djs-children">
                    <g class="djs-group">
                        <g data-element-id="StartEvent_2" transform="matrix(1,0,0,1,314,97)" style="display: block;" class="djs-element djs-shape">
                            <g class="djs-visual">
                                <circle cx="15" cy="15" r="15" stroke="#000000" fill="#ffffff" style="stroke-width: 2;"/>
                            </g>
                            <rect x="0" y="0" width="30" height="30" fill="none" stroke="#ffffff" style="stroke-opacity: 0; stroke-width: 15;" class="djs-hit"/>
                            <rect x="-6" y="-6" width="42" height="42" fill="none" style="" class="djs-outline"/>
                        </g>
                    </g>
                    <g class="djs-group">
                        <g data-element-id="StartEvent_2_label" class="djs-element djs-shape" transform="matrix(1,0,0,1,284,127)" style="display: none;">
                            <g class="djs-visual">
                                <text class=" djs-label" style="font-family: Arial, sans-serif; font-size: 11px;">
                                    <tspan x="45" y="0"/>
                                </text>
                            </g>
                            <rect x="0" y="0" width="90" height="20" fill="none" stroke="#ffffff" style="stroke-opacity: 0; stroke-width: 15;" class="djs-hit"/>
                            <rect x="-6" y="-6" width="102" height="32" fill="none" style="" class="djs-outline"/>
                        </g>
                    </g>
                    <g class="djs-group">
                        <g data-element-id="ServiceTask_2" class="djs-element djs-shape" transform="matrix(1,0,0,1,390,71)" style="display: block;">
                            <g class="djs-visual">
                                <rect x="0" y="0" width="100" height="80" rx="10" ry="10" stroke="#000000" fill="#ffffff" style="stroke-width: 2;"/>
                                <text class=" djs-label" style="font-family: Arial, sans-serif; font-size: 12px;">
                                    <tspan x="21.640625" y="43.3046875">Book hotel</tspan>
                                </text>
                                <path d="m 12,18 v -1.71335 c 0.352326,-0.0705 0.703932,-0.17838 1.047628,-0.32133 0.344416,-0.14465 0.665822,-0.32133 0.966377,-0.52145 l 1.19431,1.18005 1.567487,-1.57688 -1.195028,-1.18014 c 0.403376,-0.61394 0.683079,-1.29908 0.825447,-2.01824 l 1.622133,-0.01 v -2.2196 l -1.636514,0.01 c -0.07333,-0.35153 -0.178319,-0.70024 -0.323564,-1.04372 -0.145244,-0.34406 -0.321407,-0.6644 -0.522735,-0.96217 l 1.131035,-1.13631 -1.583305,-1.56293 -1.129598,1.13589 c -0.614052,-0.40108 -1.302883,-0.68093 -2.022633,-0.82247 l 0.0093,-1.61852 h -2.241173 l 0.0042,1.63124 c -0.353763,0.0736 -0.705369,0.17977 -1.049785,0.32371 -0.344415,0.14437 -0.665102,0.32092 -0.9635006,0.52046 l -1.1698628,-1.15823 -1.5667691,1.5792 1.1684265,1.15669 c -0.4026573,0.61283 -0.68308,1.29797 -0.8247287,2.01713 l -1.6588041,0.003 v 2.22174 l 1.6724648,-0.006 c 0.073327,0.35077 0.1797598,0.70243 0.3242851,1.04472 0.1452428,0.34448 0.3214064,0.6644 0.5227339,0.96066 l -1.1993431,1.19723 1.5840256,1.56011 1.1964668,-1.19348 c 0.6140517,0.40346 1.3028827,0.68232 2.0233517,0.82331 l 7.19e-4,1.69892 h 2.226848 z m 0.221462,-3.9957 c -1.788948,0.7502 -3.8576,-0.0928 -4.6097055,-1.87438 -0.7521065,-1.78321 0.090598,-3.84627 1.8802645,-4.59604 1.78823,-0.74936 3.856881,0.0929 4.608987,1.87437 0.752106,1.78165 -0.0906,3.84612 -1.879546,4.59605 z" fill="none" stroke="#000000" style="stroke-width: 1;"/>
                                <path d="m 17.2,18 c -1.788948,0.7502 -3.8576,-0.0928 -4.6097055,-1.87438 -0.7521065,-1.78321 0.090598,-3.84627 1.8802645,-4.59604 1.78823,-0.74936 3.856881,0.0929 4.608987,1.87437 0.752106,1.78165 -0.0906,3.84612 -1.879546,4.59605 z" fill="#ffffff" stroke="none" style="stroke-width: 0;"/>
                                <path d="m 17,22 v -1.71335 c 0.352326,-0.0705 0.703932,-0.17838 1.047628,-0.32133 0.344416,-0.14465 0.665822,-0.32133 0.966377,-0.52145 l 1.19431,1.18005 1.567487,-1.57688 -1.195028,-1.18014 c 0.403376,-0.61394 0.683079,-1.29908 0.825447,-2.01824 l 1.622133,-0.01 v -2.2196 l -1.636514,0.01 c -0.07333,-0.35153 -0.178319,-0.70024 -0.323564,-1.04372 -0.145244,-0.34406 -0.321407,-0.6644 -0.522735,-0.96217 l 1.131035,-1.13631 -1.583305,-1.56293 -1.129598,1.13589 c -0.614052,-0.40108 -1.302883,-0.68093 -2.022633,-0.82247 l 0.0093,-1.61852 h -2.241173 l 0.0042,1.63124 c -0.353763,0.0736 -0.705369,0.17977 -1.049785,0.32371 -0.344415,0.14437 -0.665102,0.32092 -0.9635006,0.52046 l -1.1698628,-1.15823 -1.5667691,1.5792 1.1684265,1.15669 c -0.4026573,0.61283 -0.68308,1.29797 -0.8247287,2.01713 l -1.6588041,0.003 v 2.22174 l 1.6724648,-0.006 c 0.073327,0.35077 0.1797598,0.70243 0.3242851,1.04472 0.1452428,0.34448 0.3214064,0.6644 0.5227339,0.96066 l -1.1993431,1.19723 1.5840256,1.56011 1.1964668,-1.19348 c 0.6140517,0.40346 1.3028827,0.68232 2.0233517,0.82331 l 7.19e-4,1.69892 h 2.226848 z m 0.221462,-3.9957 c -1.788948,0.7502 -3.8576,-0.0928 -4.6097055,-1.87438 -0.7521065,-1.78321 0.090598,-3.84627 1.8802645,-4.59604 1.78823,-0.74936 3.856881,0.0929 4.608987,1.87437 0.752106,1.78165 -0.0906,3.84612 -1.879546,4.59605 z" fill="#ffffff" stroke="#000000" style="stroke-width: 1;"/>
                            </g>
                            <rect x="0" y="0" width="100" height="80" fill="none" stroke="#ffffff" style="stroke-opacity: 0; stroke-width: 15;" class="djs-hit"/>
                            <rect x="-6" y="-6" width="112" height="92" fill="none" style="" class="djs-outline"/>
                        </g>
                    </g>
                    <g class="djs-group">
                        <g data-element-id="UserTask_1" class="djs-element djs-shape" transform="matrix(1,0,0,1,531,71)" style="display: block;">
                            <g class="djs-visual">
                                <rect x="0" y="0" width="100" height="80" rx="10" ry="10" stroke="#000000" fill="#ffffff" style="stroke-width: 2;"/>
                                <text class=" djs-label" style="font-family: Arial, sans-serif; font-size: 12px;">
                                    <tspan x="30.3203125" y="36.6328125">Review </tspan>
                                    <tspan x="25.9765625" y="49.9765625">bookings </tspan>
                                </text>
                                <path d="m 15,12 c 0.909,-0.845 1.594,-2.049 1.594,-3.385 0,-2.554 -1.805,-4.62199999 -4.357,-4.62199999 -2.55199998,0 -4.28799998,2.06799999 -4.28799998,4.62199999 0,1.348 0.974,2.562 1.89599998,3.405 -0.52899998,0.187 -5.669,2.097 -5.794,4.7560005 v 6.718 h 17 v -6.718 c 0,-2.2980005 -5.5279996,-4.5950005 -6.0509996,-4.7760005 zm -8,6 l 0,5.5 m 11,0 l 0,-5" fill="none" stroke="#000000" style="stroke-width: 0.5;"/>
                                <path d="m 15,12 m 2.162,1.009 c 0,2.4470005 -2.158,4.4310005 -4.821,4.4310005 -2.66499998,0 -4.822,-1.981 -4.822,-4.4310005 " fill="none" stroke="#000000" style="stroke-width: 0.5;"/>
                                <path d="m 15,12 m -6.9,-3.80 c 0,0 2.25099998,-2.358 4.27399998,-1.177 2.024,1.181 4.221,1.537 4.124,0.965 -0.098,-0.57 -0.117,-3.79099999 -4.191,-4.13599999 -3.57499998,0.001 -4.20799998,3.36699999 -4.20699998,4.34799999 z" fill="#000000" stroke="#000000" style="stroke-width: 0.5;"/>
                            </g>
                            <rect x="0" y="0" width="100" height="80" fill="none" stroke="#ffffff" style="stroke-opacity: 0; stroke-width: 15;" class="djs-hit"/>
                            <rect x="-6" y="-6" width="112" height="92" fill="none" style="" class="djs-outline"/>
                        </g>
                    </g>
                    <g class="djs-group">
                        <g data-element-id="EndEvent_3" transform="matrix(1,0,0,1,685,97)" style="display: block;" class="djs-element djs-shape">
                            <g class="djs-visual">
                                <circle cx="14" cy="14" r="14" stroke="#000000" fill="#ffffff" style="stroke-width: 4;"/>
                            </g>
                            <rect x="0" y="0" width="28" height="28" fill="none" stroke="#ffffff" style="stroke-opacity: 0; stroke-width: 15;" class="djs-hit"/>
                            <rect x="-6" y="-6" width="40" height="40" fill="none" style="" class="djs-outline"/>
                        </g>
                    </g>
                    <g class="djs-group">
                        <g data-element-id="EndEvent_3_label" class="djs-element djs-shape" transform="matrix(1,0,0,1,654,125)" style="display: none;">
                            <g class="djs-visual">
                                <text class=" djs-label" style="font-family: Arial, sans-serif; font-size: 11px;">
                                    <tspan x="45" y="0"/>
                                </text>
                            </g>
                            <rect x="0" y="0" width="90" height="20" fill="none" stroke="#ffffff" style="stroke-opacity: 0; stroke-width: 15;" class="djs-hit"/>
                            <rect x="-6" y="-6" width="102" height="32" fill="none" style="" class="djs-outline"/>
                        </g>
                    </g>
                    <g class="djs-group">
                        <g data-element-id="Task_1" class="djs-element djs-shape" transform="matrix(1,0,0,1,500,190)" style="display: block;">
                            <g class="djs-visual">
                                <rect x="0" y="0" width="100" height="80" rx="10" ry="10" stroke="#000000" fill="#ffffff" style="stroke-width: 2;"/>
                                <text class=" djs-label" style="font-family: Arial, sans-serif; font-size: 12px;">
                                    <tspan x="16.640625" y="36.6953125">Cancel hotel </tspan>
                                    <tspan x="20.3125" y="49.9140625">reservation </tspan>
                                </text>
                                <path d="m 23,67 8,-5 0,10 z m 9,0 8,-5 0,10 z" fill="none" stroke="#000000" style="stroke-width: 1;"/>
                            </g>
                            <rect x="0" y="0" width="100" height="80" fill="none" stroke="#ffffff" style="stroke-opacity: 0; stroke-width: 15;" class="djs-hit"/>
                            <rect x="-6" y="-6" width="112" height="92" fill="none" style="" class="djs-outline"/>
                        </g>
                    </g>
                    <g class="djs-group">
                        <g data-element-id="BoundaryEvent_1" transform="matrix(1,0,0,1,436,137)" style="display: block;" class="djs-element djs-shape">
                            <g class="djs-visual">
                                <circle cx="15" cy="15" r="15" stroke="#000000" fill="#ffffff" style="stroke-width: 1;"/>
                                <circle cx="15" cy="15" r="12" stroke="#000000" fill="none" style="stroke-width: 1;"/>
                                <path d="m 6.03,14.16 8.333333333333334,-4.166666666666667 0,8.333333333333334 z m 8.333333333333334,0 8.333333333333334,-4.166666666666667 0,8.333333333333334 z" fill="none" stroke="#000000" style="stroke-width: 1;"/>
                            </g>
                            <rect x="0" y="0" width="30" height="30" fill="none" stroke="#ffffff" style="stroke-opacity: 0; stroke-width: 15;" class="djs-hit"/>
                            <rect x="-6" y="-6" width="42" height="42" fill="none" style="" class="djs-outline"/>
                        </g>
                    </g>
                    <g class="djs-group">
                        <g data-element-id="BoundaryEvent_1_label" class="djs-element djs-shape" transform="matrix(1,0,0,1,406,167)" style="display: block;">
                            <g class="djs-visual">
                                <text class=" djs-label" style="font-family: Arial, sans-serif; font-size: 11px;">
                                    <tspan x="27.875" y="12.40625">Cancel</tspan>
                                    <tspan x="15.0390625" y="24.8125">reservations</tspan>
                                </text>
                            </g>
                            <rect x="0" y="0" width="90" height="20" fill="none" stroke="#ffffff" style="stroke-opacity: 0; stroke-width: 15;" class="djs-hit"/>
                            <rect x="-6" y="-6" width="102" height="32" fill="none" style="" class="djs-outline"/>
                        </g>
                    </g>
                    <g class="djs-group">
                        <g data-element-id="SequenceFlow_6" class="djs-element djs-connection" style="display: block;">
                            <g class="djs-visual">
                                <path d="m  344,112L390,111 " fill="none" stroke="#000000" style="stroke-width: 2; stroke-linejoin: round; marker-end: url(&quot;#markerSkbyohrgo4&quot;);"/>
                            </g>
                            <polyline points="344,112 390,111 " fill="none" stroke="#ffffff" style="stroke-opacity: 0; stroke-width: 15;" class="djs-hit"/>
                            <rect x="338" y="105" width="58" height="13" fill="none" style="" class="djs-outline"/>
                        </g>
                    </g>
                    <g class="djs-group">
                        <g data-element-id="SequenceFlow_6_label" class="djs-element djs-shape" transform="matrix(1,0,0,1,322,102)" style="display: none;">
                            <g class="djs-visual">
                                <text class=" djs-label" style="font-family: Arial, sans-serif; font-size: 11px;">
                                    <tspan x="45" y="0"/>
                                </text>
                            </g>
                            <rect x="0" y="0" width="90" height="20" fill="none" stroke="#ffffff" style="stroke-opacity: 0; stroke-width: 15;" class="djs-hit"/>
                            <rect x="-6" y="-6" width="102" height="32" fill="none" style="" class="djs-outline"/>
                        </g>
                    </g>
                    <g class="djs-group">
                        <g data-element-id="SequenceFlow_7" class="djs-element djs-connection" style="display: block;">
                            <g class="djs-visual">
                                <path d="m  490,111L531,111 " fill="none" stroke="#000000" style="stroke-width: 2; stroke-linejoin: round; marker-end: url(&quot;#markerSkbyohrgo4&quot;);"/>
                            </g>
                            <polyline points="490,111 531,111 " fill="none" stroke="#ffffff" style="stroke-opacity: 0; stroke-width: 15;" class="djs-hit"/>
                            <rect x="484" y="105" width="53" height="12" fill="none" style="" class="djs-outline"/>
                        </g>
                    </g>
                    <g class="djs-group">
                        <g data-element-id="SequenceFlow_7_label" class="djs-element djs-shape" transform="matrix(1,0,0,1,466,101)" style="display: none;">
                            <g class="djs-visual">
                                <text class=" djs-label" style="font-family: Arial, sans-serif; font-size: 11px;">
                                    <tspan x="45" y="0"/>
                                </text>
                            </g>
                            <rect x="0" y="0" width="90" height="20" fill="none" stroke="#ffffff" style="stroke-opacity: 0; stroke-width: 15;" class="djs-hit"/>
                            <rect x="-6" y="-6" width="102" height="32" fill="none" style="" class="djs-outline"/>
                        </g>
                    </g>
                    <g class="djs-group">
                        <g data-element-id="SequenceFlow_8" class="djs-element djs-connection" style="display: block;">
                            <g class="djs-visual">
                                <path d="m  631,111L685,111 " fill="none" stroke="#000000" style="stroke-width: 2; stroke-linejoin: round; marker-end: url(&quot;#markerSkbyohrgo4&quot;);"/>
                            </g>
                            <polyline points="631,111 685,111 " fill="none" stroke="#ffffff" style="stroke-opacity: 0; stroke-width: 15;" class="djs-hit"/>
                            <rect x="625" y="105" width="66" height="12" fill="none" style="" class="djs-outline"/>
                        </g>
                    </g>
                    <g class="djs-group">
                        <g data-element-id="SequenceFlow_8_label" class="djs-element djs-shape" transform="matrix(1,0,0,1,613,101)" style="display: none;">
                            <g class="djs-visual">
                                <text class=" djs-label" style="font-family: Arial, sans-serif; font-size: 11px;">
                                    <tspan x="45" y="0"/>
                                </text>
                            </g>
                            <rect x="0" y="0" width="90" height="20" fill="none" stroke="#ffffff" style="stroke-opacity: 0; stroke-width: 15;" class="djs-hit"/>
                            <rect x="-6" y="-6" width="102" height="32" fill="none" style="" class="djs-outline"/>
                        </g>
                    </g>
                    <g class="djs-group">
                        <g data-element-id="sid-793D636D-267F-4110-AE48-358739D6C8C8" class="djs-element djs-connection" style="display: block;">
                            <g class="djs-visual">
                                <polyline points="451,167 451.37036,230 500,230 " fill="none" stroke="#000000" style="stroke-width: 2; stroke-dasharray: 1, 6; stroke-linecap: round; stroke-linejoin: round;"/>
                            </g>
                            <polyline points="451,167 451.37036,230 500,230 " fill="none" stroke="#ffffff" style="stroke-opacity: 0; stroke-width: 15;" class="djs-hit"/>
                            <rect x="445" y="161" width="61" height="75" fill="none" style="" class="djs-outline"/>
                        </g>
                    </g>
                </g>
            </g>
            <g class="djs-group">
                <g data-element-id="EndEvent_1" transform="matrix(1,0,0,1,870,137)" style="display: block;" class="djs-element djs-shape">
                    <g class="djs-visual">
                        <circle cx="14" cy="14" r="14" stroke="#000000" fill="#ffffff" style="stroke-width: 4;"/>
                    </g>
                    <rect x="0" y="0" width="28" height="28" fill="none" stroke="#ffffff" style="stroke-opacity: 0; stroke-width: 15;" class="djs-hit"/>
                    <rect x="-6" y="-6" width="40" height="40" fill="none" style="" class="djs-outline"/>
                </g>
            </g>
            <g class="djs-group">
                <g data-element-id="EndEvent_1_label" class="djs-element djs-shape" transform="matrix(1,0,0,1,839,165)" style="display: none;">
                    <g class="djs-visual">
                        <text class=" djs-label" style="font-family: Arial, sans-serif; font-size: 11px;">
                            <tspan x="45" y="0"/>
                        </text>
                    </g>
                    <rect x="0" y="0" width="90" height="20" fill="none" stroke="#ffffff" style="stroke-opacity: 0; stroke-width: 15;" class="djs-hit"/>
                    <rect x="-6" y="-6" width="102" height="32" fill="none" style="" class="djs-outline"/>
                </g>
            </g>
            <g class="djs-group">
                <g data-element-id="ServiceTask_1" class="djs-element djs-shape" transform="matrix(1,0,0,1,360,380)" style="display: block;">
                    <g class="djs-visual">
                        <rect x="0" y="0" width="100" height="80" rx="10" ry="10" stroke="#000000" fill="#ffffff" style="stroke-width: 2;"/>
                        <text class=" djs-label" style="font-family: Arial, sans-serif; font-size: 12px;">
                            <tspan x="13.9765625" y="36.7265625">Charge credit </tspan>
                            <tspan x="38.328125" y="49.9453125">card </tspan>
                        </text>
                        <path d="m 12,18 v -1.71335 c 0.352326,-0.0705 0.703932,-0.17838 1.047628,-0.32133 0.344416,-0.14465 0.665822,-0.32133 0.966377,-0.52145 l 1.19431,1.18005 1.567487,-1.57688 -1.195028,-1.18014 c 0.403376,-0.61394 0.683079,-1.29908 0.825447,-2.01824 l 1.622133,-0.01 v -2.2196 l -1.636514,0.01 c -0.07333,-0.35153 -0.178319,-0.70024 -0.323564,-1.04372 -0.145244,-0.34406 -0.321407,-0.6644 -0.522735,-0.96217 l 1.131035,-1.13631 -1.583305,-1.56293 -1.129598,1.13589 c -0.614052,-0.40108 -1.302883,-0.68093 -2.022633,-0.82247 l 0.0093,-1.61852 h -2.241173 l 0.0042,1.63124 c -0.353763,0.0736 -0.705369,0.17977 -1.049785,0.32371 -0.344415,0.14437 -0.665102,0.32092 -0.9635006,0.52046 l -1.1698628,-1.15823 -1.5667691,1.5792 1.1684265,1.15669 c -0.4026573,0.61283 -0.68308,1.29797 -0.8247287,2.01713 l -1.6588041,0.003 v 2.22174 l 1.6724648,-0.006 c 0.073327,0.35077 0.1797598,0.70243 0.3242851,1.04472 0.1452428,0.34448 0.3214064,0.6644 0.5227339,0.96066 l -1.1993431,1.19723 1.5840256,1.56011 1.1964668,-1.19348 c 0.6140517,0.40346 1.3028827,0.68232 2.0233517,0.82331 l 7.19e-4,1.69892 h 2.226848 z m 0.221462,-3.9957 c -1.788948,0.7502 -3.8576,-0.0928 -4.6097055,-1.87438 -0.7521065,-1.78321 0.090598,-3.84627 1.8802645,-4.59604 1.78823,-0.74936 3.856881,0.0929 4.608987,1.87437 0.752106,1.78165 -0.0906,3.84612 -1.879546,4.59605 z" fill="none" stroke="#000000" style="stroke-width: 1;"/>
                        <path d="m 17.2,18 c -1.788948,0.7502 -3.8576,-0.0928 -4.6097055,-1.87438 -0.7521065,-1.78321 0.090598,-3.84627 1.8802645,-4.59604 1.78823,-0.74936 3.856881,0.0929 4.608987,1.87437 0.752106,1.78165 -0.0906,3.84612 -1.879546,4.59605 z" fill="#ffffff" stroke="none" style="stroke-width: 0;"/>
                        <path d="m 17,22 v -1.71335 c 0.352326,-0.0705 0.703932,-0.17838 1.047628,-0.32133 0.344416,-0.14465 0.665822,-0.32133 0.966377,-0.52145 l 1.19431,1.18005 1.567487,-1.57688 -1.195028,-1.18014 c 0.403376,-0.61394 0.683079,-1.29908 0.825447,-2.01824 l 1.622133,-0.01 v -2.2196 l -1.636514,0.01 c -0.07333,-0.35153 -0.178319,-0.70024 -0.323564,-1.04372 -0.145244,-0.34406 -0.321407,-0.6644 -0.522735,-0.96217 l 1.131035,-1.13631 -1.583305,-1.56293 -1.129598,1.13589 c -0.614052,-0.40108 -1.302883,-0.68093 -2.022633,-0.82247 l 0.0093,-1.61852 h -2.241173 l 0.0042,1.63124 c -0.353763,0.0736 -0.705369,0.17977 -1.049785,0.32371 -0.344415,0.14437 -0.665102,0.32092 -0.9635006,0.52046 l -1.1698628,-1.15823 -1.5667691,1.5792 1.1684265,1.15669 c -0.4026573,0.61283 -0.68308,1.29797 -0.8247287,2.01713 l -1.6588041,0.003 v 2.22174 l 1.6724648,-0.006 c 0.073327,0.35077 0.1797598,0.70243 0.3242851,1.04472 0.1452428,0.34448 0.3214064,0.6644 0.5227339,0.96066 l -1.1993431,1.19723 1.5840256,1.56011 1.1964668,-1.19348 c 0.6140517,0.40346 1.3028827,0.68232 2.0233517,0.82331 l 7.19e-4,1.69892 h 2.226848 z m 0.221462,-3.9957 c -1.788948,0.7502 -3.8576,-0.0928 -4.6097055,-1.87438 -0.7521065,-1.78321 0.090598,-3.84627 1.8802645,-4.59604 1.78823,-0.74936 3.856881,0.0929 4.608987,1.87437 0.752106,1.78165 -0.0906,3.84612 -1.879546,4.59605 z" fill="#ffffff" stroke="#000000" style="stroke-width: 1;"/>
                    </g>
                    <rect x="0" y="0" width="100" height="80" fill="none" stroke="#ffffff" style="stroke-opacity: 0; stroke-width: 15;" class="djs-hit"/>
                    <rect x="-6" y="-6" width="112" height="92" fill="none" style="" class="djs-outline"/>
                </g>
            </g>
            <g class="djs-group">
                <g data-element-id="EndEvent_2" transform="matrix(1,0,0,1,618,406)" style="display: block;" class="djs-element djs-shape">
                    <g class="djs-visual">
                        <circle cx="14" cy="14" r="14" stroke="#000000" fill="#ffffff" style="stroke-width: 4;"/>
                    </g>
                    <rect x="0" y="0" width="28" height="28" fill="none" stroke="#ffffff" style="stroke-opacity: 0; stroke-width: 15;" class="djs-hit"/>
                    <rect x="-6" y="-6" width="40" height="40" fill="none" style="" class="djs-outline"/>
                </g>
            </g>
            <g class="djs-group">
                <g data-element-id="EndEvent_2_label" class="djs-element djs-shape" transform="matrix(1,0,0,1,587,434)" style="display: none;">
                    <g class="djs-visual">
                        <text class=" djs-label" style="font-family: Arial, sans-serif; font-size: 11px;">
                            <tspan x="45" y="0"/>
                        </text>
                    </g>
                    <rect x="0" y="0" width="90" height="20" fill="none" stroke="#ffffff" style="stroke-opacity: 0; stroke-width: 15;" class="djs-hit"/>
                    <rect x="-6" y="-6" width="102" height="32" fill="none" style="" class="djs-outline"/>
                </g>
            </g>
            <g class="djs-group">
                <g data-element-id="ParallelGateway_1" transform="matrix(1,0,0,1,173,190)" style="display: block;" class="djs-element djs-shape">
                    <g class="djs-visual">
                        <polygon points="20,0,40,20,20,40,0,20" stroke="#000000" fill="#ffffff" style="stroke-width: 2;"/>
                        <path d="m 18.400000000000002,8 0,10 -10,0 0,3.9999999999999996 10,0 0,10 3.9999999999999996,0 0,-10 10,0 0,-3.9999999999999996 -10,0 0,-10 -3.9999999999999996,0 z" fill="#000000" stroke="#000000" style="stroke-width: 1;"/>
                    </g>
                    <rect x="0" y="0" width="40" height="40" fill="none" stroke="#ffffff" style="stroke-opacity: 0; stroke-width: 15;" class="djs-hit"/>
                    <rect x="-6" y="-6" width="52" height="52" fill="none" style="" class="djs-outline"/>
                </g>
            </g>
            <g class="djs-group">
                <g data-element-id="ParallelGateway_1_label" class="djs-element djs-shape" transform="matrix(1,0,0,1,148,230)" style="display: none;">
                    <g class="djs-visual">
                        <text class=" djs-label" style="font-family: Arial, sans-serif; font-size: 11px;">
                            <tspan x="45" y="0"/>
                        </text>
                    </g>
                    <rect x="0" y="0" width="90" height="20" fill="none" stroke="#ffffff" style="stroke-opacity: 0; stroke-width: 15;" class="djs-hit"/>
                    <rect x="-6" y="-6" width="102" height="32" fill="none" style="" class="djs-outline"/>
                </g>
            </g>
            <g class="djs-group">
                <g data-element-id="sid-54137E57-10C5-46C5-B01B-CC2C08F09712" transform="matrix(1,0,0,1,495,495)" style="display: block;" class="djs-element djs-shape">
                    <g class="djs-visual">
                        <circle cx="15" cy="15" r="15" stroke="#000000" fill="#ffffff" style="stroke-width: 1;"/>
                        <circle cx="15" cy="15" r="12" stroke="#000000" fill="none" style="stroke-width: 1;"/>
                        <path d="m 6.03,14.16 8.333333333333334,-4.166666666666667 0,8.333333333333334 z m 8.333333333333334,0 8.333333333333334,-4.166666666666667 0,8.333333333333334 z" fill="#000000" stroke="#000000" style="stroke-width: 1;"/>
                    </g>
                    <rect x="0" y="0" width="30" height="30" fill="none" stroke="#ffffff" style="stroke-opacity: 0; stroke-width: 15;" class="djs-hit"/>
                    <rect x="-6" y="-6" width="42" height="42" fill="none" style="" class="djs-outline"/>
                </g>
            </g>
            <g class="djs-group">
                <g data-element-id="sid-54137E57-10C5-46C5-B01B-CC2C08F09712_label" class="djs-element djs-shape" transform="matrix(1,0,0,1,465,525)" style="display: block;">
                    <g class="djs-visual">
                        <text class=" djs-label" style="font-family: Arial, sans-serif; font-size: 11px;">
                            <tspan x="27.875" y="12.40625">Cancel</tspan>
                            <tspan x="15.0390625" y="24.8125">reservations</tspan>
                        </text>
                    </g>
                    <rect x="0" y="0" width="90" height="20" fill="none" stroke="#ffffff" style="stroke-opacity: 0; stroke-width: 15;" class="djs-hit"/>
                    <rect x="-6" y="-6" width="102" height="32" fill="none" style="" class="djs-outline"/>
                </g>
            </g>
            <g class="djs-group">
                <g data-element-id="sid-DD745C20-A9ED-4B84-A784-82BF6DADD6DB" transform="matrix(1,0,0,1,618,496)" style="display: block;" class="djs-element djs-shape">
                    <g class="djs-visual">
                        <circle cx="14" cy="14" r="14" stroke="#000000" fill="#ffffff" style="stroke-width: 4;"/>
                    </g>
                    <rect x="0" y="0" width="28" height="28" fill="none" stroke="#ffffff" style="stroke-opacity: 0; stroke-width: 15;" class="djs-hit"/>
                    <rect x="-6" y="-6" width="40" height="40" fill="none" style="" class="djs-outline"/>
                </g>
            </g>
            <g class="djs-group">
                <g data-element-id="sid-DD745C20-A9ED-4B84-A784-82BF6DADD6DB_label" class="djs-element djs-shape" transform="matrix(1,0,0,1,587,524)" style="display: none;">
                    <g class="djs-visual">
                        <text class=" djs-label" style="font-family: Arial, sans-serif; font-size: 11px;">
                            <tspan x="45" y="0"/>
                        </text>
                    </g>
                    <rect x="0" y="0" width="90" height="20" fill="none" stroke="#ffffff" style="stroke-opacity: 0; stroke-width: 15;" class="djs-hit"/>
                    <rect x="-6" y="-6" width="102" height="32" fill="none" style="" class="djs-outline"/>
                </g>
            </g>
            <g class="djs-group">
                <g data-element-id="sid-F9A86854-9CFA-4D3F-8DB7-18BCE5A46E58" class="djs-element djs-shape" transform="matrix(1,0,0,1,552,432)" style="display: block;">
                    <g class="djs-visual">
                        <rect x="0" y="0" width="190" height="56" rx="0" ry="0" stroke="none" fill="none" style="stroke-width: 2;"/>
                        <path d="m 0, 0 m 10,0 l -10,0 l 0,56 l 10,0" fill="none" stroke="#000000" style="stroke-width: 2;"/>
                        <text class=" djs-label" style="font-family: Arial, sans-serif; font-size: 12px;">
                            <tspan x="5" y="18.0546875">This will not be propagated to the </tspan>
                            <tspan x="5" y="31.2734375">inner sub process if it is not </tspan>
                            <tspan x="5" y="44.6171875">finished yet! </tspan>
                        </text>
                    </g>
                    <rect x="0" y="0" width="190" height="56" fill="none" stroke="#ffffff" style="stroke-opacity: 0; stroke-width: 15;" class="djs-hit"/>
                    <rect x="-6" y="-6" width="202" height="68" fill="none" style="" class="djs-outline"/>
                </g>
            </g>
            <g class="djs-group">
                <g data-element-id="BoundaryEvent_2" transform="matrix(1,0,0,1,420,445)" style="display: block;" class="djs-element djs-shape">
                    <g class="djs-visual">
                        <circle cx="15" cy="15" r="15" stroke="#000000" fill="#ffffff" style="stroke-width: 1;"/>
                        <circle cx="15" cy="15" r="12" stroke="#000000" fill="none" style="stroke-width: 1;"/>
                        <path d="m 6,21.66 0.07791666666666668,-0.021083333333333336 6.1160000000000005,-8.008916666666668 6.389166666666667,7.47175 3.916916666666667,-15.183666666666667 -4.89225,9.708416666666666 -6.083,-7.9878333333333345 z" fill="none" stroke="#000000" style="stroke-width: 1;"/>
                    </g>
                    <rect x="0" y="0" width="30" height="30" fill="none" stroke="#ffffff" style="stroke-opacity: 0; stroke-width: 15;" class="djs-hit"/>
                    <rect x="-6" y="-6" width="42" height="42" fill="none" style="" class="djs-outline"/>
                </g>
            </g>
            <g class="djs-group">
                <g data-element-id="BoundaryEvent_2_label" class="djs-element djs-shape" transform="matrix(1,0,0,1,390,475)" style="display: none;">
                    <g class="djs-visual">
                        <text class=" djs-label" style="font-family: Arial, sans-serif; font-size: 11px;">
                            <tspan x="45" y="0"/>
                        </text>
                    </g>
                    <rect x="0" y="0" width="90" height="20" fill="none" stroke="#ffffff" style="stroke-opacity: 0; stroke-width: 15;" class="djs-hit"/>
                    <rect x="-6" y="-6" width="102" height="32" fill="none" style="" class="djs-outline"/>
                </g>
            </g>
            <g class="djs-group">
                <g data-element-id="SequenceFlow_1" class="djs-element djs-connection" style="display: block;">
                    <g class="djs-visual">
                        <path d="m  116,211L173,210 " fill="none" stroke="#000000" style="stroke-width: 2; stroke-linejoin: round; marker-end: url(&quot;#markerSkbyohrgo4&quot;);"/>
                    </g>
                    <polyline points="116,211 173,210 " fill="none" stroke="#ffffff" style="stroke-opacity: 0; stroke-width: 15;" class="djs-hit"/>
                    <rect x="110" y="204" width="69" height="13" fill="none" style="" class="djs-outline"/>
                </g>
            </g>
            <g class="djs-group">
                <g data-element-id="SequenceFlow_1_label" class="djs-element djs-shape" transform="matrix(1,0,0,1,100,201)" style="display: none;">
                    <g class="djs-visual">
                        <text class=" djs-label" style="font-family: Arial, sans-serif; font-size: 11px;">
                            <tspan x="45" y="0"/>
                        </text>
                    </g>
                    <rect x="0" y="0" width="90" height="20" fill="none" stroke="#ffffff" style="stroke-opacity: 0; stroke-width: 15;" class="djs-hit"/>
                    <rect x="-6" y="-6" width="102" height="32" fill="none" style="" class="djs-outline"/>
                </g>
            </g>
            <g class="djs-group">
                <g data-element-id="SequenceFlow_3" class="djs-element djs-connection" style="display: block;">
                    <g class="djs-visual">
                        <path d="m  791,150L870,151 " fill="none" stroke="#000000" style="stroke-width: 2; stroke-linejoin: round; marker-end: url(&quot;#markerSkbyohrgo4&quot;);"/>
                    </g>
                    <polyline points="791,150 870,151 " fill="none" stroke="#ffffff" style="stroke-opacity: 0; stroke-width: 15;" class="djs-hit"/>
                    <rect x="785" y="144" width="91" height="13" fill="none" style="" class="djs-outline"/>
                </g>
            </g>
            <g class="djs-group">
                <g data-element-id="SequenceFlow_3_label" class="djs-element djs-shape" transform="matrix(1,0,0,1,786,141)" style="display: none;">
                    <g class="djs-visual">
                        <text class=" djs-label" style="font-family: Arial, sans-serif; font-size: 11px;">
                            <tspan x="45" y="0"/>
                        </text>
                    </g>
                    <rect x="0" y="0" width="90" height="20" fill="none" stroke="#ffffff" style="stroke-opacity: 0; stroke-width: 15;" class="djs-hit"/>
                    <rect x="-6" y="-6" width="102" height="32" fill="none" style="" class="djs-outline"/>
                </g>
            </g>
            <g class="djs-group">
                <g data-element-id="SequenceFlow_4" class="djs-element djs-connection" style="display: block;">
                    <g class="djs-visual">
                        <path d="m  193,230L193,420 L360,420 " fill="none" stroke="#000000" style="stroke-width: 2; stroke-linejoin: round; marker-end: url(&quot;#markerSkbyohrgo4&quot;);"/>
                    </g>
                    <polyline points="193,230 193,420 360,420 " fill="none" stroke="#ffffff" style="stroke-opacity: 0; stroke-width: 15;" class="djs-hit"/>
                    <rect x="187" y="224" width="179" height="202" fill="none" style="" class="djs-outline"/>
                </g>
            </g>
            <g class="djs-group">
                <g data-element-id="SequenceFlow_4_label" class="djs-element djs-shape" transform="matrix(1,0,0,1,148,315)" style="display: none;">
                    <g class="djs-visual">
                        <text class=" djs-label" style="font-family: Arial, sans-serif; font-size: 11px;">
                            <tspan x="45" y="0"/>
                        </text>
                    </g>
                    <rect x="0" y="0" width="90" height="20" fill="none" stroke="#ffffff" style="stroke-opacity: 0; stroke-width: 15;" class="djs-hit"/>
                    <rect x="-6" y="-6" width="102" height="32" fill="none" style="" class="djs-outline"/>
                </g>
            </g>
            <g class="djs-group">
                <g data-element-id="SequenceFlow_5" class="djs-element djs-connection" style="display: block;">
                    <g class="djs-visual">
                        <path d="m  460,420L618,420 " fill="none" stroke="#000000" style="stroke-width: 2; stroke-linejoin: round; marker-end: url(&quot;#markerSkbyohrgo4&quot;);"/>
                    </g>
                    <polyline points="460,420 618,420 " fill="none" stroke="#ffffff" style="stroke-opacity: 0; stroke-width: 15;" class="djs-hit"/>
                    <rect x="454" y="414" width="170" height="12" fill="none" style="" class="djs-outline"/>
                </g>
            </g>
            <g class="djs-group">
                <g data-element-id="SequenceFlow_5_label" class="djs-element djs-shape" transform="matrix(1,0,0,1,494,410)" style="display: none;">
                    <g class="djs-visual">
                        <text class=" djs-label" style="font-family: Arial, sans-serif; font-size: 11px;">
                            <tspan x="45" y="0"/>
                        </text>
                    </g>
                    <rect x="0" y="0" width="90" height="20" fill="none" stroke="#ffffff" style="stroke-opacity: 0; stroke-width: 15;" class="djs-hit"/>
                    <rect x="-6" y="-6" width="102" height="32" fill="none" style="" class="djs-outline"/>
                </g>
            </g>
            <g class="djs-group">
                <g data-element-id="sid-5F53AFCC-070F-4F48-868C-BFBDAC09A7F9" class="djs-element djs-connection" style="display: block;">
                    <g class="djs-visual">
                        <path d="m  435,475L435.18518,510 L495,510 " fill="none" stroke="#000000" style="stroke-width: 2; stroke-linejoin: round; marker-end: url(&quot;#markerSkbyohrgo4&quot;);"/>
                    </g>
                    <polyline points="435,475 435.18518,510 495,510 " fill="none" stroke="#ffffff" style="stroke-opacity: 0; stroke-width: 15;" class="djs-hit"/>
                    <rect x="429" y="469" width="72" height="47" fill="none" style="" class="djs-outline"/>
                </g>
            </g>
            <g class="djs-group">
                <g data-element-id="sid-5F53AFCC-070F-4F48-868C-BFBDAC09A7F9_label" class="djs-element djs-shape" transform="matrix(1,0,0,1,390,483)" style="display: none;">
                    <g class="djs-visual">
                        <text class=" djs-label" style="font-family: Arial, sans-serif; font-size: 11px;">
                            <tspan x="45" y="0"/>
                        </text>
                    </g>
                    <rect x="0" y="0" width="90" height="20" fill="none" stroke="#ffffff" style="stroke-opacity: 0; stroke-width: 15;" class="djs-hit"/>
                    <rect x="-6" y="-6" width="102" height="32" fill="none" style="" class="djs-outline"/>
                </g>
            </g>
            <g class="djs-group">
                <g data-element-id="sid-A913B040-9ADF-48C2-B7F0-01859ED3A63B" class="djs-element djs-connection" style="display: block;">
                    <g class="djs-visual">
                        <path d="m  525,510L618,510 " fill="none" stroke="#000000" style="stroke-width: 2; stroke-linejoin: round; marker-end: url(&quot;#markerSkbyohrgo4&quot;);"/>
                    </g>
                    <polyline points="525,510 618,510 " fill="none" stroke="#ffffff" style="stroke-opacity: 0; stroke-width: 15;" class="djs-hit"/>
                    <rect x="519" y="504" width="105" height="12" fill="none" style="" class="djs-outline"/>
                </g>
            </g>
            <g class="djs-group">
                <g data-element-id="sid-A913B040-9ADF-48C2-B7F0-01859ED3A63B_label" class="djs-element djs-shape" transform="matrix(1,0,0,1,527,500)" style="display: none;">
                    <g class="djs-visual">
                        <text class=" djs-label" style="font-family: Arial, sans-serif; font-size: 11px;">
                            <tspan x="45" y="0"/>
                        </text>
                    </g>
                    <rect x="0" y="0" width="90" height="20" fill="none" stroke="#ffffff" style="stroke-opacity: 0; stroke-width: 15;" class="djs-hit"/>
                    <rect x="-6" y="-6" width="102" height="32" fill="none" style="" class="djs-outline"/>
                </g>
            </g>
            <g class="djs-group">
                <g data-element-id="SequenceFlow_2" class="djs-element djs-connection" style="display: block;">
                    <g class="djs-visual">
                        <path d="m  193,190L193,150 L280,150 " fill="none" stroke="#000000" style="stroke-width: 2; stroke-linejoin: round; marker-end: url(&quot;#markerSkbyohrgo4&quot;);"/>
                    </g>
                    <polyline points="193,190 193,150 280,150 " fill="none" stroke="#ffffff" style="stroke-opacity: 0; stroke-width: 15;" class="djs-hit"/>
                    <rect x="187" y="144" width="99" height="52" fill="none" style="" class="djs-outline"/>
                </g>
            </g>
            <g class="djs-group">
                <g data-element-id="SequenceFlow_2_label" class="djs-element djs-shape" transform="matrix(1,0,0,1,148,160)" style="display: none;">
                    <g class="djs-visual">
                        <text class=" djs-label" style="font-family: Arial, sans-serif; font-size: 11px;">
                            <tspan x="45" y="0"/>
                        </text>
                    </g>
                    <rect x="0" y="0" width="90" height="20" fill="none" stroke="#ffffff" style="stroke-opacity: 0; stroke-width: 15;" class="djs-hit"/>
                    <rect x="-6" y="-6" width="102" height="32" fill="none" style="" class="djs-outline"/>
                </g>
            </g>
            <g class="djs-group">
                <g data-element-id="sid-6CE05FC0-7278-459F-9124-A4335A24BEB3" class="djs-element djs-connection" style="display: block;">
                    <g class="djs-visual">
                        <polyline points="523,495 552,460 " fill="none" stroke="#000000" style="stroke-width: 2; stroke-dasharray: 1, 6; stroke-linecap: round; stroke-linejoin: round;"/>
                    </g>
                    <polyline points="523,495 552,460 " fill="none" stroke="#ffffff" style="stroke-opacity: 0; stroke-width: 15;" class="djs-hit"/>
                    <rect x="517" y="454" width="41" height="47" fill="none" style="" class="djs-outline"/>
                </g>
            </g>
        </g>
    </g>
</svg>