<svg width="676" height="242" 
    xmlns="http://www.w3.org/2000/svg" data-element-id="Process_1">
    <desc>Created with Snap</desc>
    <defs>
        <marker viewBox="0 0 20 20" markerWidth="10" markerHeight="10" orient="auto" refX="11" refY="10" id="markerSkbxtjlbx4">
            <path d="M 1 5 L 11 10 L 1 15 Z" style="stroke-width: 1; stroke-linecap: round; stroke-dasharray: 10000, 1;" fill="#000000"/>
        </marker>
        <marker viewBox="0 0 20 20" markerWidth="20" markerHeight="20" orient="auto" refX="6" refY="6" id="markerSkbxtjlbx6">
            <circle cx="6" cy="6" r="3.5" style="stroke-width: 1; stroke-linecap: round; stroke-dasharray: 10000, 1;" fill="#ffffff" stroke="#000000"/>
        </marker>
        <marker viewBox="0 0 20 20" markerWidth="20" markerHeight="20" orient="auto" refX="8.5" refY="5" id="markerSkbxtjlbx8">
            <path d="m 1 5 l 0 -3 l 7 3 l -7 3 z" fill="#ffffff" stroke="#000000" style="stroke-width: 1; stroke-linecap: butt; stroke-dasharray: 10000, 1;"/>
        </marker>
        <marker viewBox="0 0 20 20" markerWidth="10" markerHeight="10" orient="auto" refX="11" refY="10" id="markerSkbxtjlbxa">
            <path d="M 1 5 L 11 10 L 1 15" fill="#ffffff" stroke="#000000" style="stroke-width: 1; stroke-linecap: round; stroke-dasharray: 10000, 1;"/>
        </marker>
        <marker viewBox="0 0 20 20" markerWidth="10" markerHeight="10" orient="auto" refX="-1" refY="10" id="markerSkbxtjlbxc">
            <path d="M 0 10 L 8 6 L 16 10 L 8 14 Z" fill="#ffffff" stroke="#000000" style="stroke-width: 1; stroke-linecap: round; stroke-dasharray: 10000, 1;"/>
        </marker>
        <marker viewBox="0 0 20 20" markerWidth="10" markerHeight="10" orient="auto" refX="-5" refY="10" id="markerSkbxtjlbxe">
            <path d="M 1 4 L 5 16" fill="#000000" stroke="#000000" style="stroke-width: 1; stroke-linecap: round; stroke-dasharray: 10000, 1;"/>
        </marker>
    </defs>
    <g class="viewport" transform="matrix(1,0,0,1,-36,0)">
        <g data-element-id="Process_1" class="layer-base">
            <g class="djs-group">
                <g data-element-id="StartEvent_1" transform="matrix(1,0,0,1,42,92)" style="display: block;" class="djs-element djs-shape">
                    <g class="djs-visual">
                        <circle cx="18" cy="18" r="18" stroke="#000000" fill="#ffffff" style="stroke-width: 2;"/>
                    </g>
                    <rect x="0" y="0" width="36" height="36" fill="none" stroke="#ffffff" style="stroke-opacity: 0; stroke-width: 15;" class="djs-hit"/>
                    <rect x="-6" y="-6" width="48" height="48" fill="none" style="" class="djs-outline"/>
                </g>
            </g>
            <g class="djs-group">
                <g data-element-id="StartEvent_1_label" class="djs-element djs-shape" transform="matrix(1,0,0,1,15,128)" style="display: none;">
                    <g class="djs-visual">
                        <text class=" djs-label" style="font-family: Arial, sans-serif; font-size: 11px;">
                            <tspan x="45" y="0"/>
                        </text>
                    </g>
                    <rect x="0" y="0" width="90" height="20" fill="none" stroke="#ffffff" style="stroke-opacity: 0; stroke-width: 15;" class="djs-hit"/>
                    <rect x="-6" y="-6" width="102" height="32" fill="none" style="" class="djs-outline"/>
                </g>
            </g>
            <g class="djs-group">
                <g data-element-id="EndEvent_1" transform="matrix(1,0,0,1,670,92)" style="display: block;" class="djs-element djs-shape">
                    <g class="djs-visual">
                        <circle cx="18" cy="18" r="18" stroke="#000000" fill="#ffffff" style="stroke-width: 4;"/>
                    </g>
                    <rect x="0" y="0" width="36" height="36" fill="none" stroke="#ffffff" style="stroke-opacity: 0; stroke-width: 15;" class="djs-hit"/>
                    <rect x="-6" y="-6" width="48" height="48" fill="none" style="" class="djs-outline"/>
                </g>
            </g>
            <g class="djs-group">
                <g data-element-id="EndEvent_1_label" class="djs-element djs-shape" transform="matrix(1,0,0,1,643,133)" style="display: none;">
                    <g class="djs-visual">
                        <text class=" djs-label" style="font-family: Arial, sans-serif; font-size: 11px;">
                            <tspan x="45" y="0"/>
                        </text>
                    </g>
                    <rect x="0" y="0" width="90" height="0" fill="none" stroke="#ffffff" style="stroke-opacity: 0; stroke-width: 15;" class="djs-hit"/>
                    <rect x="-6" y="-6" width="102" height="12" fill="none" style="" class="djs-outline"/>
                </g>
            </g>
            <g class="djs-group">
                <g data-element-id="UserTask_3" class="djs-element djs-shape" transform="matrix(1,0,0,1,520,70)" style="display: block;">
                    <g class="djs-visual">
                        <rect x="0" y="0" width="100" height="80" rx="10" ry="10" stroke="#000000" fill="#ffffff" style="stroke-width: 2;"/>
                        <text class=" djs-label" style="font-family: Arial, sans-serif; font-size: 12px;">
                            <tspan x="14.21875" y="43.3046875">Archive order</tspan>
                        </text>
                        <path d="m 15,12 c 0.909,-0.845 1.594,-2.049 1.594,-3.385 0,-2.554 -1.805,-4.62199999 -4.357,-4.62199999 -2.55199998,0 -4.28799998,2.06799999 -4.28799998,4.62199999 0,1.348 0.974,2.562 1.89599998,3.405 -0.52899998,0.187 -5.669,2.097 -5.794,4.7560005 v 6.718 h 17 v -6.718 c 0,-2.2980005 -5.5279996,-4.5950005 -6.0509996,-4.7760005 zm -8,6 l 0,5.5 m 11,0 l 0,-5" fill="none" stroke="#000000" style="stroke-width: 0.5;"/>
                        <path d="m 15,12 m 2.162,1.009 c 0,2.4470005 -2.158,4.4310005 -4.821,4.4310005 -2.66499998,0 -4.822,-1.981 -4.822,-4.4310005 " fill="none" stroke="#000000" style="stroke-width: 0.5;"/>
                        <path d="m 15,12 m -6.9,-3.80 c 0,0 2.25099998,-2.358 4.27399998,-1.177 2.024,1.181 4.221,1.537 4.124,0.965 -0.098,-0.57 -0.117,-3.79099999 -4.191,-4.13599999 -3.57499998,0.001 -4.20799998,3.36699999 -4.20699998,4.34799999 z" fill="#000000" stroke="#000000" style="stroke-width: 0.5;"/>
                    </g>
                    <rect x="0" y="0" width="100" height="80" fill="none" stroke="#ffffff" style="stroke-opacity: 0; stroke-width: 15;" class="djs-hit"/>
                    <rect x="-6" y="-6" width="112" height="92" fill="none" style="" class="djs-outline"/>
                </g>
            </g>
            <g class="djs-group">
                <g data-element-id="InclusiveGateway_2" transform="matrix(1,0,0,1,430,85)" style="display: block;" class="djs-element djs-shape">
                    <g class="djs-visual">
                        <polygon points="25,0,50,25,25,50,0,25" stroke="#000000" fill="#ffffff" style="stroke-width: 2;"/>
                        <circle cx="25" cy="25" r="13" stroke="#000000" fill="none" style="stroke-width: 2.5;"/>
                    </g>
                    <rect x="0" y="0" width="50" height="50" fill="none" stroke="#ffffff" style="stroke-opacity: 0; stroke-width: 15;" class="djs-hit"/>
                    <rect x="-6" y="-6" width="62" height="62" fill="none" style="" class="djs-outline"/>
                </g>
            </g>
            <g class="djs-group">
                <g data-element-id="InclusiveGateway_2_label" class="djs-element djs-shape" transform="matrix(1,0,0,1,410,140)" style="display: none;">
                    <g class="djs-visual">
                        <text class=" djs-label" style="font-family: Arial, sans-serif; font-size: 11px;">
                            <tspan x="45" y="0"/>
                        </text>
                    </g>
                    <rect x="0" y="0" width="90" height="0" fill="none" stroke="#ffffff" style="stroke-opacity: 0; stroke-width: 15;" class="djs-hit"/>
                    <rect x="-6" y="-6" width="102" height="12" fill="none" style="" class="djs-outline"/>
                </g>
            </g>
            <g class="djs-group">
                <g data-element-id="UserTask_1" class="djs-element djs-shape" transform="matrix(1,0,0,1,310,6)" style="display: block;">
                    <g class="djs-visual">
                        <rect x="0" y="0" width="100" height="80" rx="10" ry="10" stroke="#000000" fill="#ffffff" style="stroke-width: 2;"/>
                        <text class=" djs-label" style="font-family: Arial, sans-serif; font-size: 12px;">
                            <tspan x="12.5625" y="43.3046875">Receive order</tspan>
                        </text>
                        <path d="m 15,12 c 0.909,-0.845 1.594,-2.049 1.594,-3.385 0,-2.554 -1.805,-4.62199999 -4.357,-4.62199999 -2.55199998,0 -4.28799998,2.06799999 -4.28799998,4.62199999 0,1.348 0.974,2.562 1.89599998,3.405 -0.52899998,0.187 -5.669,2.097 -5.794,4.7560005 v 6.718 h 17 v -6.718 c 0,-2.2980005 -5.5279996,-4.5950005 -6.0509996,-4.7760005 zm -8,6 l 0,5.5 m 11,0 l 0,-5" fill="none" stroke="#000000" style="stroke-width: 0.5;"/>
                        <path d="m 15,12 m 2.162,1.009 c 0,2.4470005 -2.158,4.4310005 -4.821,4.4310005 -2.66499998,0 -4.822,-1.981 -4.822,-4.4310005 " fill="none" stroke="#000000" style="stroke-width: 0.5;"/>
                        <path d="m 15,12 m -6.9,-3.80 c 0,0 2.25099998,-2.358 4.27399998,-1.177 2.024,1.181 4.221,1.537 4.124,0.965 -0.098,-0.57 -0.117,-3.79099999 -4.191,-4.13599999 -3.57499998,0.001 -4.20799998,3.36699999 -4.20699998,4.34799999 z" fill="#000000" stroke="#000000" style="stroke-width: 0.5;"/>
                    </g>
                    <rect x="0" y="0" width="100" height="80" fill="none" stroke="#ffffff" style="stroke-opacity: 0; stroke-width: 15;" class="djs-hit"/>
                    <rect x="-6" y="-6" width="112" height="92" fill="none" style="" class="djs-outline"/>
                </g>
            </g>
            <g class="djs-group">
                <g data-element-id="UserTask_2" class="djs-element djs-shape" transform="matrix(1,0,0,1,310,156)" style="display: block;">
                    <g class="djs-visual">
                        <rect x="0" y="0" width="100" height="80" rx="10" ry="10" stroke="#000000" fill="#ffffff" style="stroke-width: 2;"/>
                        <text class=" djs-label" style="font-family: Arial, sans-serif; font-size: 12px;">
                            <tspan x="22.234375" y="43.3046875">Ship order</tspan>
                        </text>
                        <path d="m 15,12 c 0.909,-0.845 1.594,-2.049 1.594,-3.385 0,-2.554 -1.805,-4.62199999 -4.357,-4.62199999 -2.55199998,0 -4.28799998,2.06799999 -4.28799998,4.62199999 0,1.348 0.974,2.562 1.89599998,3.405 -0.52899998,0.187 -5.669,2.097 -5.794,4.7560005 v 6.718 h 17 v -6.718 c 0,-2.2980005 -5.5279996,-4.5950005 -6.0509996,-4.7760005 zm -8,6 l 0,5.5 m 11,0 l 0,-5" fill="none" stroke="#000000" style="stroke-width: 0.5;"/>
                        <path d="m 15,12 m 2.162,1.009 c 0,2.4470005 -2.158,4.4310005 -4.821,4.4310005 -2.66499998,0 -4.822,-1.981 -4.822,-4.4310005 " fill="none" stroke="#000000" style="stroke-width: 0.5;"/>
                        <path d="m 15,12 m -6.9,-3.80 c 0,0 2.25099998,-2.358 4.27399998,-1.177 2.024,1.181 4.221,1.537 4.124,0.965 -0.098,-0.57 -0.117,-3.79099999 -4.191,-4.13599999 -3.57499998,0.001 -4.20799998,3.36699999 -4.20699998,4.34799999 z" fill="#000000" stroke="#000000" style="stroke-width: 0.5;"/>
                    </g>
                    <rect x="0" y="0" width="100" height="80" fill="none" stroke="#ffffff" style="stroke-opacity: 0; stroke-width: 15;" class="djs-hit"/>
                    <rect x="-6" y="-6" width="112" height="92" fill="none" style="" class="djs-outline"/>
                </g>
            </g>
            <g class="djs-group">
                <g data-element-id="InclusiveGateway_1" transform="matrix(1,0,0,1,111,85)" style="display: block;" class="djs-element djs-shape">
                    <g class="djs-visual">
                        <polygon points="25,0,50,25,25,50,0,25" stroke="#000000" fill="#ffffff" style="stroke-width: 2;"/>
                        <circle cx="25" cy="25" r="13" stroke="#000000" fill="none" style="stroke-width: 2.5;"/>
                    </g>
                    <rect x="0" y="0" width="50" height="50" fill="none" stroke="#ffffff" style="stroke-opacity: 0; stroke-width: 15;" class="djs-hit"/>
                    <rect x="-6" y="-6" width="62" height="62" fill="none" style="" class="djs-outline"/>
                </g>
            </g>
            <g class="djs-group">
                <g data-element-id="InclusiveGateway_1_label" class="djs-element djs-shape" transform="matrix(1,0,0,1,91,140)" style="display: none;">
                    <g class="djs-visual">
                        <text class=" djs-label" style="font-family: Arial, sans-serif; font-size: 11px;">
                            <tspan x="45" y="0"/>
                        </text>
                    </g>
                    <rect x="0" y="0" width="90" height="0" fill="none" stroke="#ffffff" style="stroke-opacity: 0; stroke-width: 15;" class="djs-hit"/>
                    <rect x="-6" y="-6" width="102" height="12" fill="none" style="" class="djs-outline"/>
                </g>
            </g>
            <g class="djs-group">
                <g data-element-id="SequenceFlow_1" class="djs-element djs-connection" style="display: block;">
                    <g class="djs-visual">
                        <path d="m  78,110L111,110 " fill="none" stroke="#000000" style="stroke-width: 2; stroke-linejoin: round; marker-end: url(&quot;#markerSkbxtjlbx4&quot;);"/>
                    </g>
                    <polyline points="78,110 111,110 " fill="none" stroke="#ffffff" style="stroke-opacity: 0; stroke-width: 15;" class="djs-hit"/>
                    <rect x="72" y="104" width="45" height="12" fill="none" style="" class="djs-outline"/>
                </g>
            </g>
            <g class="djs-group">
                <g data-element-id="SequenceFlow_1_label" class="djs-element djs-shape" transform="matrix(1,0,0,1,58,110)" style="display: none;">
                    <g class="djs-visual">
                        <text class=" djs-label" style="font-family: Arial, sans-serif; font-size: 11px;">
                            <tspan x="45" y="0"/>
                        </text>
                    </g>
                    <rect x="0" y="0" width="90" height="0" fill="none" stroke="#ffffff" style="stroke-opacity: 0; stroke-width: 15;" class="djs-hit"/>
                    <rect x="-6" y="-6" width="102" height="12" fill="none" style="" class="djs-outline"/>
                </g>
            </g>
            <g class="djs-group">
                <g data-element-id="SequenceFlow_7" class="djs-element djs-connection" style="display: block;">
                    <g class="djs-visual">
                        <path d="m  620,110L670,110 " fill="none" stroke="#000000" style="stroke-width: 2; stroke-linejoin: round; marker-end: url(&quot;#markerSkbxtjlbx4&quot;);"/>
                    </g>
                    <polyline points="620,110 670,110 " fill="none" stroke="#ffffff" style="stroke-opacity: 0; stroke-width: 15;" class="djs-hit"/>
                    <rect x="614" y="104" width="62" height="12" fill="none" style="" class="djs-outline"/>
                </g>
            </g>
            <g class="djs-group">
                <g data-element-id="SequenceFlow_7_label" class="djs-element djs-shape" transform="matrix(1,0,0,1,600,110)" style="display: none;">
                    <g class="djs-visual">
                        <text class=" djs-label" style="font-family: Arial, sans-serif; font-size: 11px;">
                            <tspan x="45" y="0"/>
                        </text>
                    </g>
                    <rect x="0" y="0" width="90" height="0" fill="none" stroke="#ffffff" style="stroke-opacity: 0; stroke-width: 15;" class="djs-hit"/>
                    <rect x="-6" y="-6" width="102" height="12" fill="none" style="" class="djs-outline"/>
                </g>
            </g>
            <g class="djs-group">
                <g data-element-id="SequenceFlow_6" class="djs-element djs-connection" style="display: block;">
                    <g class="djs-visual">
                        <path d="m  480,110L520,110 " fill="none" stroke="#000000" style="stroke-width: 2; stroke-linejoin: round; marker-end: url(&quot;#markerSkbxtjlbx4&quot;);"/>
                    </g>
                    <polyline points="480,110 520,110 " fill="none" stroke="#ffffff" style="stroke-opacity: 0; stroke-width: 15;" class="djs-hit"/>
                    <rect x="474" y="104" width="52" height="12" fill="none" style="" class="djs-outline"/>
                </g>
            </g>
            <g class="djs-group">
                <g data-element-id="SequenceFlow_6_label" class="djs-element djs-shape" transform="matrix(1,0,0,1,460,110)" style="display: none;">
                    <g class="djs-visual">
                        <text class=" djs-label" style="font-family: Arial, sans-serif; font-size: 11px;">
                            <tspan x="45" y="0"/>
                        </text>
                    </g>
                    <rect x="0" y="0" width="90" height="0" fill="none" stroke="#ffffff" style="stroke-opacity: 0; stroke-width: 15;" class="djs-hit"/>
                    <rect x="-6" y="-6" width="102" height="12" fill="none" style="" class="djs-outline"/>
                </g>
            </g>
            <g class="djs-group">
                <g data-element-id="SequenceFlow_4" class="djs-element djs-connection" style="display: block;">
                    <g class="djs-visual">
                        <path d="m  410,46L455,46 L455,85 " fill="none" stroke="#000000" style="stroke-width: 2; stroke-linejoin: round; marker-end: url(&quot;#markerSkbxtjlbx4&quot;);"/>
                    </g>
                    <polyline points="410,46 455,46 455,85 " fill="none" stroke="#ffffff" style="stroke-opacity: 0; stroke-width: 15;" class="djs-hit"/>
                    <rect x="404" y="40" width="57" height="51" fill="none" style="" class="djs-outline"/>
                </g>
            </g>
            <g class="djs-group">
                <g data-element-id="SequenceFlow_4_label" class="djs-element djs-shape" transform="matrix(1,0,0,1,390,46)" style="display: none;">
                    <g class="djs-visual">
                        <text class=" djs-label" style="font-family: Arial, sans-serif; font-size: 11px;">
                            <tspan x="45" y="0"/>
                        </text>
                    </g>
                    <rect x="0" y="0" width="90" height="0" fill="none" stroke="#ffffff" style="stroke-opacity: 0; stroke-width: 15;" class="djs-hit"/>
                    <rect x="-6" y="-6" width="102" height="12" fill="none" style="" class="djs-outline"/>
                </g>
            </g>
            <g class="djs-group">
                <g data-element-id="SequenceFlow_5" class="djs-element djs-connection" style="display: block;">
                    <g class="djs-visual">
                        <path d="m  410,196L455,196 L455,135 " fill="none" stroke="#000000" style="stroke-width: 2; stroke-linejoin: round; marker-end: url(&quot;#markerSkbxtjlbx4&quot;);"/>
                    </g>
                    <polyline points="410,196 455,196 455,135 " fill="none" stroke="#ffffff" style="stroke-opacity: 0; stroke-width: 15;" class="djs-hit"/>
                    <rect x="404" y="129" width="57" height="73" fill="none" style="" class="djs-outline"/>
                </g>
            </g>
            <g class="djs-group">
                <g data-element-id="SequenceFlow_5_label" class="djs-element djs-shape" transform="matrix(1,0,0,1,410,175)" style="display: none;">
                    <g class="djs-visual">
                        <text class=" djs-label" style="font-family: Arial, sans-serif; font-size: 11px;">
                            <tspan x="45" y="0"/>
                        </text>
                    </g>
                    <rect x="0" y="0" width="90" height="6" fill="none" stroke="#ffffff" style="stroke-opacity: 0; stroke-width: 15;" class="djs-hit"/>
                    <rect x="-6" y="-6" width="102" height="18" fill="none" style="" class="djs-outline"/>
                </g>
            </g>
            <g class="djs-group">
                <g data-element-id="SequenceFlow_2" class="djs-element djs-connection" style="display: block;">
                    <g class="djs-visual">
                        <path d="m  136,85L136,46 L310,46 " fill="none" stroke="#000000" style="stroke-width: 2; stroke-linejoin: round; marker-end: url(&quot;#markerSkbxtjlbx4&quot;);"/>
                    </g>
                    <polyline points="136,85 136,46 310,46 " fill="none" stroke="#ffffff" style="stroke-opacity: 0; stroke-width: 15;" class="djs-hit"/>
                    <rect x="130" y="40" width="186" height="51" fill="none" style="" class="djs-outline"/>
                </g>
            </g>
            <g class="djs-group">
                <g data-element-id="SequenceFlow_2_label" class="djs-element djs-shape" transform="matrix(1,0,0,1,143,50)" style="display: block;">
                    <g class="djs-visual">
                        <text class=" djs-label" style="font-family: Arial, sans-serif; font-size: 11px;">
                            <tspan x="14.1953125" y="12.40625">${paymentReceived==false}</tspan>
                        </text>
                    </g>
                    <rect x="0" y="0" width="166" height="22" fill="none" stroke="#ffffff" style="stroke-opacity: 0; stroke-width: 15;" class="djs-hit"/>
                    <rect x="-6" y="-6" width="178" height="34" fill="none" style="" class="djs-outline"/>
                </g>
            </g>
            <g class="djs-group">
                <g data-element-id="SequenceFlow_3" class="djs-element djs-connection" style="display: block;">
                    <g class="djs-visual">
                        <path d="m  136,135L136,196 L310,196 " fill="none" stroke="#000000" style="stroke-width: 2; stroke-linejoin: round; marker-end: url(&quot;#markerSkbxtjlbx4&quot;);"/>
                    </g>
                    <polyline points="136,135 136,196 310,196 " fill="none" stroke="#ffffff" style="stroke-opacity: 0; stroke-width: 15;" class="djs-hit"/>
                    <rect x="130" y="129" width="186" height="73" fill="none" style="" class="djs-outline"/>
                </g>
            </g>
            <g class="djs-group">
                <g data-element-id="SequenceFlow_3_label" class="djs-element djs-shape" transform="matrix(1,0,0,1,156,167)" style="display: block;">
                    <g class="djs-visual">
                        <text class=" djs-label" style="font-family: Arial, sans-serif; font-size: 11px;">
                            <tspan x="10.7109375" y="12.40625">${shipOrder==true}</tspan>
                        </text>
                    </g>
                    <rect x="0" y="0" width="115" height="22" fill="none" stroke="#ffffff" style="stroke-opacity: 0; stroke-width: 15;" class="djs-hit"/>
                    <rect x="-6" y="-6" width="127" height="34" fill="none" style="" class="djs-outline"/>
                </g>
            </g>
        </g>
    </g>
</svg>