<?xml version="1.0" standalone="no"?><!DOCTYPE svg PUBLIC "-//W3C//DTD SVG 1.1//EN" "http://www.w3.org/Graphics/SVG/1.1/DTD/svg11.dtd"><svg t="1591759348670" class="icon" viewBox="0 0 1024 1024" version="1.1" xmlns="http://www.w3.org/2000/svg" p-id="3259" xmlns:xlink="http://www.w3.org/1999/xlink" width="200" height="200"><defs><style type="text/css"></style></defs><path d="M750.3 571.8c-46.8-61.6-188.4-41.3-229.9-97.7-4.6-6.2-5.2-23.1-4.9-35.9 0.1-4.7 2.1-9.3 5.6-12.4 35.1-31.5 59-86.9 59-140.9 0-103.2-16.1-188.7-120.4-188.7-107.6 0-122.8 86.4-121.8 190.4 0.6 53 24.4 107.9 59.3 139.3 3.5 3.2 5.6 7.9 5.7 12.7 0 12.8-0.8 29.4-5.3 35.6-40.9 56.4-186.9 34.8-231.1 97.7-29.2 41.6-37.4 131.9-39.5 170.6-0.6 9.9 7.2 18.2 17 18.2h630.3c9.7 0 17.4-8.2 17-18-2.1-39-10-130.1-41-170.9" fill="#FFB74D" p-id="3260"></path><path d="M546 734.6c0 105.2 85.2 190.5 190.4 190.5S926.9 840 926.9 734.8v-0.1c0-105.2-85.2-190.5-190.4-190.5S546 629.3 546 734.5v0.1z" fill="#43A047" p-id="3261"></path><path d="M757.1 634c-0.2-0.7-4.1-16.4-20.2-25.2-6.6-3.6-14.5-5.4-23.5-5.4-6.8 0-11.8 1.1-12 1.2l-2.6 0.6-69.6 172.7 5.4 76.3 59.7-52.4 63.1-166.4-0.3-1.4zM780.3 685.9h67.8V696h-67.8v-10.1z m-27.7 64.3h95.5v-10.1h-95.5v10.1z m-21.9 56.3h117.4v-10.1H730.7v10.1z" fill="#FFFFFF" p-id="3262"></path><path d="M852.1 810.5H726.7v-18.1h125.4v18.1z m-117.4-8h109.4v-2.1H734.7v2.1z m117.4-48.3H748.6v-18.1h103.5v18.1z m-95.5-8h87.5v-2.1h-87.5v2.1z m95.5-46.2h-75.8v-18.1h75.8V700z m-67.8-8h59.8v-2.1h-59.8v2.1z" fill="#FFFFFF" p-id="3263"></path></svg>