<?xml version="1.0" standalone="no"?><!DOCTYPE svg PUBLIC "-//W3C//DTD SVG 1.1//EN" "http://www.w3.org/Graphics/SVG/1.1/DTD/svg11.dtd"><svg t="1595919456941" class="icon" viewBox="0 0 1024 1024" version="1.1" xmlns="http://www.w3.org/2000/svg" p-id="2164" xmlns:xlink="http://www.w3.org/1999/xlink" width="200" height="200"><defs><style type="text/css"></style></defs><path d="M556.724706 554.285176c0-20.299294-16.263529-36.743529-36.382118-36.743529H216.274824a36.562824 36.562824 0 0 0-36.382118 36.743529c0 20.299294 16.263529 36.743529 36.382118 36.74353h304.188235a36.562824 36.562824 0 0 0 36.321882-36.74353z m200.101647 196.728471v-73.487059c0-20.239059-16.263529-36.683294-36.382118-36.683294a36.562824 36.562824 0 0 0-36.382117 36.74353v110.110117c0 20.299294 16.263529 36.743529 36.382117 36.74353h109.206589a36.562824 36.562824 0 0 0 36.382117-36.74353c0-20.239059-16.263529-36.743529-36.382117-36.743529h-72.824471zM216.274824 455.318588h304.188235a36.562824 36.562824 0 0 0 36.321882-36.683294c0-20.299294-16.263529-36.743529-36.382117-36.743529H216.274824a36.562824 36.562824 0 0 0-36.382118 36.743529c0 20.299294 16.263529 36.743529 36.382118 36.74353z m0-135.649882h467.847529a36.562824 36.562824 0 0 0 36.382118-36.683294c0-20.299294-16.263529-36.743529-36.382118-36.74353H216.274824a36.562824 36.562824 0 0 0-36.382118 36.74353c0 20.299294 16.263529 36.743529 36.382118 36.743529z m660.660705 271.058823V208.715294a109.628235 109.628235 0 0 0-109.146353-110.170353h-94.388705A109.507765 109.507765 0 0 0 564.796235 0H372.344471c-55.838118 0-102.701176 42.526118-108.544 98.544941H169.411765c-60.235294 0-109.146353 49.332706-109.146353 110.170353v692.946824a109.628235 109.628235 0 0 0 109.146353 110.110117H645.150118c127.578353 42.164706 264.854588-28.069647 306.597647-156.79247a246.603294 246.603294 0 0 0-74.872471-264.252236zM133.029647 901.722353V208.715294c0-20.299294 16.263529-36.743529 36.382118-36.743529h130.108235a36.562824 36.562824 0 0 0 36.442353-36.74353v-25.118117c0-20.239059 16.263529-36.743529 36.382118-36.74353h192.451764c20.118588 0 36.382118 16.504471 36.382118 36.74353v25.178353c0 20.299294 16.263529 36.743529 36.382118 36.743529h130.108235c20.118588 0 36.442353 16.384 36.442353 36.683294v339.305412c-126.012235-46.682353-265.637647 18.492235-312.018824 145.648941a246.964706 246.964706 0 0 0 44.092236 244.675765H169.411765a36.562824 36.562824 0 0 1-36.382118-36.74353z m587.414588 48.911059c-94.147765 0-170.465882-76.980706-170.465882-171.971765s76.318118-171.971765 170.465882-171.971765c94.147765 0 170.465882 76.980706 170.465883 171.971765-0.120471 94.870588-76.378353 171.791059-170.465883 171.851294v0.120471z" p-id="2165"></path></svg>