<?xml version="1.0" standalone="no"?><!DOCTYPE svg PUBLIC "-//W3C//DTD SVG 1.1//EN" "http://www.w3.org/Graphics/SVG/1.1/DTD/svg11.dtd"><svg t="1595919707588" class="icon" viewBox="0 0 1024 1024" version="1.1" xmlns="http://www.w3.org/2000/svg" p-id="3788" xmlns:xlink="http://www.w3.org/1999/xlink" width="200" height="200"><defs><style type="text/css"></style></defs><path d="M876.5952 142.1312h-152.9856v0.512h-45.1584c-12.8512-76.9536-83.5584-134.656-160.6656-134.656-77.1072 0-147.8144 57.7024-160.6656 134.656h-46.08v-0.512H164.352c-30.8224 0-55.9104 25.7024-55.9104 57.2416v752.3328c0 31.5904 25.088 57.2416 55.9104 57.2416h712.2432c30.8224 0 55.9104-25.7024 55.9104-57.2416V199.3728c-0.0512-31.5904-25.088-57.2416-55.9104-57.2416zM357.0688 206.7456h32.1536c6.4512 0 19.3024-6.4 25.7024-12.8 6.4512-6.4 6.4512-19.2512 6.4512-25.6512 0-51.3024 45.0048-96.1536 96.4096-96.1536s96.4096 44.9024 96.4096 96.1536v6.4c0 6.4 0 12.8 6.4512 19.2512 6.4512 6.4 19.3024 12.8 25.7024 12.8h32.1536v89.7536H357.0688V206.7456z m511.3856 738.2016H172.4416V206.1312h120.3712v122.4192c0 19.2512 12.8512 32.0512 32.1536 32.0512h385.5872c19.3024 0 32.1536-12.8 32.1536-32.0512V206.7456h64.256v-0.6144h61.5424v738.816z" p-id="3789"></path><path d="M646.2976 520.9088l-183.6032 177.408-73.472-68.4032c-12.8512-12.8-32.1536-12.8-45.0048 0-0.3584 0.3072-0.6656 0.6656-1.024 1.024a30.95552 30.95552 0 0 0 1.024 43.8784l102.8096 96.1536c6.4512 6.4 12.8512 6.4 19.3024 6.4 6.4512 0 12.8512 0 19.3024-6.4l205.6704-205.1584c12.8512-12.8 12.8512-32.0512 0-44.9024-12.9024-12.8512-32.1536-12.8512-45.0048 0z" p-id="3790"></path></svg>