<?xml version="1.0" standalone="no"?><!DOCTYPE svg PUBLIC "-//W3C//DTD SVG 1.1//EN" "http://www.w3.org/Graphics/SVG/1.1/DTD/svg11.dtd"><svg t="1595728716169" class="icon" viewBox="0 0 1024 1024" version="1.1" xmlns="http://www.w3.org/2000/svg" p-id="2077" xmlns:xlink="http://www.w3.org/1999/xlink" width="200" height="200"><defs><style type="text/css"></style></defs><path d="M647.06328125 290.19921875C548.50273438 191.63867187 388.7703125 191.63867187 290.20976563 290.19921875 191.64921875 388.75976562 191.64921875 548.4921875 290.20976563 647.05273438 388.7703125 745.61328125 548.50273438 745.61328125 647.06328125 647.05273438 745.62382812 548.4921875 745.62382812 388.75976562 647.06328125 290.19921875L647.06328125 290.19921875ZM914.69023437 825.50585938C939.3171875 850.1328125 939.3171875 890.05273438 914.69023437 914.6796875 890.06328125 939.359375 850.14335937 939.359375 825.46367187 914.6796875L691.6765625 780.89257813C690.09453125 779.31054688 689.51445312 777.25390625 688.14335937 775.56640625 540.27617187 881.50976563 333.82109375 869.1171875 200.98320312 736.27929688 53.16875 588.46484375 53.16875 348.78710937 200.98320312 200.97265625 348.79765625 53.15820312 588.47539063 53.15820312 736.28984375 200.97265625 869.12773437 333.81054687 881.5203125 540.265625 775.57695312 688.1328125 777.26445313 689.50390625 779.32109375 690.08398438 780.903125 691.66601563L914.69023437 825.50585938Z" p-id="2078"></path></svg>